<?xml version="1.0" encoding="iso-8859-1"?>
<!-- Generator: Adobe Illustrator 19.0.0, SVG Export Plug-In . SVG Version: 6.00 Build 0)  -->
<svg version="1.1" id="Capa_1" xmlns="http://www.w3.org/2000/svg" xmlns:xlink="http://www.w3.org/1999/xlink" x="0px" y="0px"
	 viewBox="0 0 423.253 423.253" style="enable-background:new 0 0 423.253 423.253;" xml:space="preserve">
<path style="fill:#EA3457;" d="M143.36,88.684c0-7.475,6.115-13.59,13.59-13.59h109.351c7.475,0,13.592,6.117,13.592,13.592v122.941
	H143.36V88.684z"/>
<path style="fill:#602F75;" d="M279.893,218.453H143.36c-3.773,0-6.827-3.057-6.827-6.827V88.684c0-11.257,9.16-20.417,20.42-20.417
	H266.3c11.261,0,20.42,9.16,20.42,20.417v122.943C286.72,215.397,283.667,218.453,279.893,218.453z M150.187,204.8h122.88V88.684
	c0-3.731-3.033-6.764-6.767-6.764H156.954c-3.734,0-6.767,3.033-6.767,6.764V204.8L150.187,204.8z"/>
<path style="fill:#FFE600;" d="M6.827,225.217c0-7.475,6.115-13.59,13.59-13.59H143.36V348.16H20.419
	c-7.475,0-13.592-6.117-13.592-13.592V225.217z"/>
<path style="fill:#602F75;" d="M143.36,354.987H20.42c-11.261,0-20.42-9.16-20.42-20.42v-109.35C0,213.96,9.16,204.8,20.42,204.8
	h122.94c3.773,0,6.827,3.057,6.827,6.827V348.16C150.187,351.93,147.133,354.987,143.36,354.987z M20.42,218.453
	c-3.734,0-6.767,3.033-6.767,6.764v109.35c0,3.731,3.033,6.767,6.767,6.767h116.113v-122.88H20.42z"/>
<path style="fill:#FFE600;" d="M279.893,348.158V211.627h122.941c7.475,0,13.592,6.117,13.592,13.592V334.57
	c0,7.475-6.115,13.59-13.59,13.59L279.893,348.158L279.893,348.158z"/>
<path style="fill:#602F75;" d="M402.833,354.987h-122.94c-3.773,0-6.827-3.057-6.827-6.827V211.627c0-3.77,3.053-6.827,6.827-6.827
	h122.94c11.261,0,20.42,9.16,20.42,20.417V334.57C423.253,345.827,414.094,354.987,402.833,354.987z M286.72,341.333h116.113
	c3.734,0,6.767-3.033,6.767-6.764V225.217c0-3.731-3.033-6.764-6.767-6.764H286.72V341.333z"/>
<polygon style="fill:#EA3457;" points="143.36,348.158 143.36,211.627 279.892,211.627 279.893,211.628 279.893,348.16 
	143.362,348.16 "/>
<path style="fill:#602F75;" d="M279.893,354.987H143.36c-3.773,0-6.827-3.057-6.827-6.827V211.627c0-3.77,3.053-6.827,6.827-6.827
	h136.533c3.773,0,6.827,3.057,6.827,6.827V348.16C286.72,351.93,283.667,354.987,279.893,354.987z M150.187,341.333h122.88v-122.88
	h-122.88V341.333z"/>
<g>
	<polygon style="fill:#FFE600;" points="225.28,143.36 225.28,191.147 197.973,191.147 197.973,143.36 177.493,143.36 
		211.627,95.573 245.76,143.36 	"/>
	<path style="fill:#FFE600;" d="M225.28,197.973h-27.307c-3.773,0-6.827-3.057-6.827-6.827v-40.96h-13.653
		c-2.56,0-4.9-1.43-6.074-3.703c-1.167-2.273-0.966-5.011,0.521-7.089l34.133-47.787c2.56-3.593,8.547-3.593,11.107,0l34.133,47.787
		c1.487,2.08,1.686,4.816,0.521,7.089c-1.174,2.273-3.514,3.703-6.074,3.703h-13.653v40.96
		C232.107,194.917,229.053,197.973,225.28,197.973z M204.8,184.32h13.653v-40.96c0-3.77,3.053-6.827,6.827-6.827h7.214
		l-20.867-29.213l-20.867,29.213h7.214c3.773,0,6.827,3.057,6.827,6.827V184.32z"/>
</g>
<g>
	<polygon style="fill:#EA3457;" points="75.093,266.24 122.88,266.24 122.88,293.547 75.093,293.547 75.093,314.027 27.307,279.893 
		75.093,245.76 	"/>
	<path style="fill:#EA3457;" d="M75.093,320.853c-1.399,0-2.787-0.43-3.966-1.27L23.34,285.45c-1.794-1.283-2.86-3.354-2.86-5.557
		s1.067-4.273,2.86-5.557l47.787-34.133c2.074-1.483,4.806-1.686,7.093-0.514c2.273,1.171,3.7,3.514,3.7,6.071v13.653h40.96
		c3.773,0,6.827,3.057,6.827,6.827v27.307c0,3.77-3.053,6.827-6.827,6.827H81.92v13.653c0,2.557-1.427,4.9-3.7,6.071
		C77.233,320.604,76.16,320.853,75.093,320.853z M39.054,279.893l29.213,20.867v-7.214c0-3.77,3.053-6.827,6.827-6.827h40.96
		v-13.653h-40.96c-3.773,0-6.827-3.057-6.827-6.827v-7.214L39.054,279.893z"/>
	<polygon style="fill:#EA3457;" points="348.16,266.24 300.373,266.24 300.373,293.547 348.16,293.547 348.16,314.027 
		395.947,279.893 348.16,245.76 	"/>
	<path style="fill:#EA3457;" d="M348.16,320.853c-1.067,0-2.14-0.249-3.127-0.756c-2.273-1.171-3.7-3.514-3.7-6.071v-13.653h-40.96
		c-3.773,0-6.827-3.057-6.827-6.827V266.24c0-3.77,3.053-6.827,6.827-6.827h40.96V245.76c0-2.557,1.427-4.9,3.7-6.071
		c2.28-1.174,5.007-0.969,7.093,0.514l47.787,34.133c1.794,1.283,2.86,3.354,2.86,5.557s-1.067,4.273-2.86,5.557l-47.787,34.133
		C350.947,320.423,349.559,320.853,348.16,320.853z M307.2,286.72h40.96c3.773,0,6.827,3.057,6.827,6.827v7.214l29.213-20.867
		l-29.213-20.867v7.214c0,3.77-3.053,6.827-6.827,6.827H307.2V286.72z"/>
</g>
<g>
	<polygon style="fill:#FFE600;" points="225.28,279.893 225.28,232.107 197.973,232.107 197.973,279.893 177.493,279.893 
		211.627,327.68 245.76,279.893 	"/>
	<path style="fill:#FFE600;" d="M211.627,334.507c-2.207,0-4.273-1.063-5.553-2.86L171.94,283.86
		c-1.487-2.08-1.686-4.816-0.521-7.09c1.174-2.273,3.514-3.703,6.074-3.703h13.653v-40.96c0-3.77,3.053-6.827,6.827-6.827h27.307
		c3.773,0,6.827,3.057,6.827,6.827v40.96h13.653c2.56,0,4.9,1.43,6.074,3.703c1.167,2.273,0.966,5.011-0.521,7.09l-34.133,47.787
		C215.9,333.443,213.833,334.507,211.627,334.507z M190.759,286.72l20.867,29.213l20.867-29.213h-7.214
		c-3.773,0-6.827-3.057-6.827-6.827v-40.96H204.8v40.96c0,3.77-3.053,6.827-6.827,6.827H190.759z"/>
</g>
<g>
</g>
<g>
</g>
<g>
</g>
<g>
</g>
<g>
</g>
<g>
</g>
<g>
</g>
<g>
</g>
<g>
</g>
<g>
</g>
<g>
</g>
<g>
</g>
<g>
</g>
<g>
</g>
<g>
</g>
</svg>
