<?xml version="1.0" encoding="iso-8859-1"?>
<!-- Generator: Adobe Illustrator 22.0.0, SVG Export Plug-In . SVG Version: 6.00 Build 0)  -->
<svg xmlns="http://www.w3.org/2000/svg" xmlns:xlink="http://www.w3.org/1999/xlink" version="1.1" x="0px" y="0px" viewBox="0 0 58 59.001" style="enable-background:new 0 0 58 59.001;" xml:space="preserve" width="512" height="512">
<g id="_x31_4-TV_Game">
	<path style="fill:#AFB6BB;" d="M28.999,12.001c-0.181,0-0.364-0.049-0.529-0.152l-16-10c-0.468-0.293-0.611-0.91-0.318-1.378   c0.293-0.469,0.909-0.612,1.378-0.318l16,10c0.468,0.293,0.611,0.91,0.318,1.378C29.658,11.834,29.333,12.001,28.999,12.001z"/>
	<path style="fill:#AFB6BB;" d="M29.001,12.001c-0.333,0-0.659-0.167-0.849-0.47c-0.293-0.468-0.15-1.085,0.318-1.378l16-10   c0.469-0.293,1.085-0.15,1.378,0.318c0.293,0.468,0.15,1.085-0.318,1.378l-16,10C29.365,11.952,29.182,12.001,29.001,12.001z"/>
	<path style="fill:#E7ECED;" d="M33,11.001h-8c-3.314,0-6,2.686-6,6v2h20v-2C39,13.687,36.314,11.001,33,11.001z"/>
	<path style="fill:#BE7C6D;" d="M54.002,59.001H3.998C1.79,59.001,0,57.211,0,55.003V20.998c0-2.208,1.79-3.998,3.998-3.998h50.004   c2.208,0,3.998,1.79,3.998,3.998v34.004C58,57.211,56.21,59.001,54.002,59.001z"/>
	<circle style="fill:#FFFFFF;" cx="50" cy="50.001" r="4"/>
	<path style="fill:#AFB6BB;" d="M50,51.001c-0.256,0-0.512-0.098-0.707-0.293l-5-5c-0.391-0.391-0.391-1.023,0-1.414   c0.39-0.391,1.024-0.391,1.414,0l5,5c0.391,0.391,0.391,1.023,0,1.414C50.512,50.903,50.256,51.001,50,51.001z"/>
	<path style="fill:#28384C;" d="M37.999,54.001H8.001C6.343,54.001,5,52.657,5,51V25.001c0-1.657,1.343-3.001,3.001-3.001h29.999   c1.657,0,3.001,1.343,3.001,3.001V51C41,52.657,39.657,54.001,37.999,54.001z"/>
	<rect x="46" y="22.001" style="fill:#4C2D29;" width="8" height="8"/>
	<path style="fill:#4C2D29;" d="M54,37.001h-8c-0.552,0-1-0.448-1-1s0.448-1,1-1h8c0.552,0,1,0.448,1,1S54.552,37.001,54,37.001z"/>
	<path style="fill:#4C2D29;" d="M54,41.001h-8c-0.552,0-1-0.448-1-1s0.448-1,1-1h8c0.552,0,1,0.448,1,1S54.552,41.001,54,41.001z"/>
	<path style="fill:#FFFFFF;" d="M50,26.001c-0.552,0-1-0.448-1-1v-3c0-0.552,0.448-1,1-1s1,0.448,1,1v3   C51,25.553,50.552,26.001,50,26.001z"/>
	<rect x="9" y="38.001" style="fill:#DD352E;" width="4" height="4"/>
	<rect x="13" y="38.001" style="fill:#B02721;" width="4" height="4"/>
	<rect x="9" y="42.001" style="fill:#B02721;" width="4" height="4"/>
	<rect x="9" y="46.001" style="fill:#DC691D;" width="4" height="4"/>
	<rect x="9" y="50.001" style="fill:#ED8A19;" width="4" height="4"/>
	<rect x="13" y="42.001" style="fill:#DD352E;" width="4" height="4"/>
	<rect x="29" y="46.001" style="fill:#EBBA16;" width="4" height="4"/>
	<rect x="33" y="46.001" style="fill:#C1971F;" width="4" height="4"/>
	<rect x="29" y="50.001" style="fill:#C1971F;" width="4" height="4"/>
	<rect x="25" y="50.001" style="fill:#DD352E;" width="4" height="4"/>
	<rect x="33" y="42.001" style="fill:#DD352E;" width="4" height="4"/>
	<rect x="14" y="30.001" style="fill:#EBBA16;" width="4" height="4"/>
	<rect x="18" y="30.001" style="fill:#C1971F;" width="4" height="4"/>
	<rect x="33" y="50.001" style="fill:#EBBA16;" width="4" height="4"/>
	
		<rect x="27" y="34.001" transform="matrix(-1 -4.502011e-11 4.502011e-11 -1 58 72.0012)" style="fill:#25AE88;" width="4" height="4"/>
	
		<rect x="27" y="30.001" transform="matrix(-1 -4.502011e-11 4.502011e-11 -1 58 64.0012)" style="fill:#1A8463;" width="4" height="4"/>
	
		<rect x="27" y="26.001" transform="matrix(-1 -4.479274e-11 4.479274e-11 -1 58 56.0012)" style="fill:#25AE88;" width="4" height="4"/>
	
		<rect x="31" y="26.001" transform="matrix(-1 -4.502011e-11 4.502011e-11 -1 66 56.0012)" style="fill:#1A8463;" width="4" height="4"/>
</g>

</svg>
